<svg xmlns="http://www.w3.org/2000/svg" width="178.344" height="29.35" viewBox="0 0 178.344 29.35">
  <defs>
    <style>
      .cls-1 {
        fill: #e33;
      }

      .cls-2 {
        fill: #fff;
      }

      .cls-3 {
        fill: #3e3e3e;
      }
    </style>
  </defs>
  <g id="PRmuebles" data-name="Grupo 135" transform="translate(-1483.615 -1691.962)">
    <g id="Grupo_134" data-name="Grupo 134">
      <path id="Trazado_43" data-name="Trazado 43" class="cls-1" d="M7905.615,1691.963v29.017h5.451v-10.44s7.254.844,11.207-1.459,3.749-6.888,3.749-8.251-.4-5.094-3.749-7.041S7918.511,1691.963,7905.615,1691.963Z" transform="translate(-6422)"/>
      <path id="Trazado_44" data-name="Trazado 44" class="cls-2" d="M7911.032,1696.151v10.584s10.175,1.645,10.175-5.269S7911.032,1696.151,7911.032,1696.151Z" transform="translate(-6422)"/>
    </g>
    <path id="Exclusión_1" data-name="Exclusión 1" class="cls-1" d="M-6416.684,29.005H-6422V0l13.185.229a9.4,9.4,0,0,1,3.384,1.389,7.486,7.486,0,0,1,2.327,2.435,8.223,8.223,0,0,1,1.057,4.215,8.594,8.594,0,0,1-1.048,4.272A8.079,8.079,0,0,1-6405.4,15.1a9.81,9.81,0,0,1-3.352,1.57l.016.005a3.261,3.261,0,0,1,1.077.615c.286.326,8.1,11.6,8.177,11.712l-6.346,0c-.027-.044-3.185-5.075-5.33-8.138-.383-.548-.666-1.005-.915-1.409-.624-1.011-.968-1.567-1.809-1.7a8.4,8.4,0,0,0-1.086-.05c-.836,0-1.766.05-1.775.05l.06,11.247Zm-.1-15.025s.59.063,1.465.063a12.936,12.936,0,0,0,4.879-.837,4.31,4.31,0,0,0,2.921-4.178c0-4.233-4.663-4.865-7.443-4.865h0a16.032,16.032,0,0,0-1.822.1v9.72Z" transform="translate(7930.627 1691.962)"/>
    <path id="Trazado_47" data-name="Trazado 47" class="cls-3" d="M7954.566,1705.263l.21,15.738h4.077v-9.232c.016-.893,1.667-3.6,4.058-3.168s2.048,3.168,2.048,3.168L7965,1721h4.1v-9.232c0-.412,1.255-3.72,4.277-3.168,1.934.439,1.771,3.168,1.771,3.168V1721h4.171v-9.232s.481-5.388-3.231-6.538c-5.818-1.17-7.1,3.236-7.416,3.052-.232.1.164-2.623-3.675-3.228-5.151-.39-6.64,3.228-6.64,3.228v-3.021Z" transform="translate(-6422)"/>
    <path id="Trazado_48" data-name="Trazado 48" class="cls-3" d="M7982.531,1705.3h4.105v9.889s.189,2.62,2.179,2.682c2.753.119,3.753-1.693,4.388-2.682V1705.3h4.072l-.019,11.2a1.264,1.264,0,0,0,.212.75,1.388,1.388,0,0,0,.759.35v3.388s-2.323.53-3.422-.194-.975-2.7-.975-2.7a6.7,6.7,0,0,1-4,2.894c-2.825.755-4.769.156-6.156-1.431a6.03,6.03,0,0,1-1.113-3.588C7982.565,1712.423,7982.531,1705.3,7982.531,1705.3Z" transform="translate(-6422)"/>
    <path id="Exclusión_2" data-name="Exclusión 2" class="cls-3" d="M-6413.607,16.307h0a9.473,9.473,0,0,1-4.006-.881,6.047,6.047,0,0,1-2.549-2.063A8.006,8.006,0,0,1-6422,8.414a9.666,9.666,0,0,1,1.54-5.187A8.559,8.559,0,0,1-6413.691,0a8.026,8.026,0,0,1,4.334,1.172,7.414,7.414,0,0,1,3.623,5.089,10.1,10.1,0,0,1,.172,3.173h-12.174a4.438,4.438,0,0,0,3.528,3.93c.079,0,.158,0,.236,0,3.313,0,4.125-2.14,4.133-2.162l3.462.988h0l0,0a7.168,7.168,0,0,1-3.058,3.116A9.109,9.109,0,0,1-6413.607,16.307Zm-.1-13.4a3.762,3.762,0,0,0-3.474,1.954,5.394,5.394,0,0,0-.633,1.953h8.2a5.4,5.4,0,0,0-.626-1.954A3.75,3.75,0,0,0-6413.709,2.908Z" transform="translate(8000.24 1704.998)"/>
    <path id="Exclusión_4" data-name="Exclusión 4" class="cls-3" d="M-6413.607,16.307h0a9.473,9.473,0,0,1-4.006-.881,6.047,6.047,0,0,1-2.549-2.063A8.006,8.006,0,0,1-6422,8.414a9.666,9.666,0,0,1,1.54-5.187A8.559,8.559,0,0,1-6413.691,0a8.026,8.026,0,0,1,4.334,1.172,7.414,7.414,0,0,1,3.623,5.089,10.1,10.1,0,0,1,.172,3.173h-12.174a4.438,4.438,0,0,0,3.528,3.93c.079,0,.158,0,.236,0,3.313,0,4.125-2.14,4.133-2.162l3.462.988h0l0,0a7.168,7.168,0,0,1-3.058,3.116A9.109,9.109,0,0,1-6413.607,16.307Zm-.1-13.4a3.762,3.762,0,0,0-3.474,1.954,5.394,5.394,0,0,0-.633,1.953h8.2a5.4,5.4,0,0,0-.626-1.954A3.75,3.75,0,0,0-6413.709,2.908Z" transform="translate(8046.24 1704.928)"/>
    <path id="Exclusión_3" data-name="Exclusión 3" class="cls-3" d="M-6413.134,22.191a6.164,6.164,0,0,1-4.051-1.485,6.018,6.018,0,0,1-1.281-1.485v2.7H-6422V0h4.042V8.922l0-.008a7.069,7.069,0,0,1,1.321-1.491,6.041,6.041,0,0,1,3.93-1.5,7.161,7.161,0,0,1,2.629.536,7.274,7.274,0,0,1,3.448,3.271,9.425,9.425,0,0,1,.938,5.007,10.361,10.361,0,0,1-1.014,3.542,6.784,6.784,0,0,1-3.829,3.468A8.353,8.353,0,0,1-6413.134,22.191Zm-.637-12.812h0c-2.966,0-4.16,2.961-4.171,2.991v3.837a4.5,4.5,0,0,0,3.575,2.593c.094.008.19.012.286.012a4.453,4.453,0,0,0,3.156-1.45,3.873,3.873,0,0,0,1.121-2.892c.055-1.992-.744-4.5-3.175-5.025a4.924,4.924,0,0,0-.791-.066Z" transform="translate(8019.17 1699.085)"/>
    <path id="Trazado_53" data-name="Trazado 53" class="cls-3" d="M8038.219,1699.1l-.036,18.481a3.627,3.627,0,0,0,2.208,3.359,8.141,8.141,0,0,0,5.6-.55l-.575-3.012s-1.537.737-2.362.2c-.791-.255-.837-1.266-.837-1.266l.028-17.216Z" transform="translate(-6422)"/>
    <path id="Trazado_56" data-name="Trazado 56" class="cls-3" d="M8066.06,1716.354l-1.494,2.578s3.189,2.548,6.538,2.3a7.223,7.223,0,0,0,5.413-1.45,4.379,4.379,0,0,0,1.125-5.175c-.866-1.42-1.275-1.542-3.237-2.325s-4.1-.963-5.1-1.637c-.712-.525-.925-2.312,1.237-2.788a7.509,7.509,0,0,1,5.25,1.675l1.65-2.425a9.789,9.789,0,0,0-6.087-2.075,6.392,6.392,0,0,0-5.753,2.894c-1.175,2.662-.028,4.494.384,4.669.712.838,3.381,1.569,6.069,2.381,2.25.537,2.225,1.438,1.938,2.338s-2,1.361-3.906.959A13.106,13.106,0,0,1,8066.06,1716.354Z" transform="translate(-6422)"/>
    <path id="Trazado_57" data-name="Trazado 57" class="cls-1" d="M8080.5,1716.686v4.42h3.461v-4.42Z" transform="translate(-6422)"/>
  </g>
</svg>
